<svg id="visual" viewBox="0 0 1920 1080" width="1920" height="1080" xmlns="http://www.w3.org/2000/svg" xmlns:xlink="http://www.w3.org/1999/xlink" version="1.1"><rect x="0" y="0" width="1920" height="1080" fill="#14b073"></rect><path d="M0 674L274 796L549 747L823 697L1097 759L1371 763L1646 752L1920 731L1920 1081L1646 1081L1371 1081L1097 1081L823 1081L549 1081L274 1081L0 1081Z" fill="#14b073"></path><path d="M0 782L274 764L549 785L823 807L1097 840L1371 756L1646 787L1920 851L1920 1081L1646 1081L1371 1081L1097 1081L823 1081L549 1081L274 1081L0 1081Z" fill="#15995c"></path><path d="M0 874L274 917L549 896L823 817L1097 880L1371 896L1646 883L1920 804L1920 1081L1646 1081L1371 1081L1097 1081L823 1081L549 1081L274 1081L0 1081Z" fill="#138247"></path><path d="M0 971L274 887L549 937L823 912L1097 923L1371 887L1646 899L1920 922L1920 1081L1646 1081L1371 1081L1097 1081L823 1081L549 1081L274 1081L0 1081Z" fill="#0e6c33"></path><path d="M0 953L274 958L549 957L823 946L1097 946L1371 953L1646 954L1920 1028L1920 1081L1646 1081L1371 1081L1097 1081L823 1081L549 1081L274 1081L0 1081Z" fill="#065620"></path></svg>